Coordinates
version=1
nRows=32
nColumns=18
inDegrees=yes

Units are S.I. units (second, meters, Newtons, ...)
Angles are in degrees.

endheader
time	pelvis_tilt	pelvis_list	pelvis_rotation	pelvis_tx	pelvis_ty	pelvis_tz	hip_flexion_r	hip_adduction_r	hip_rotation_r	knee_angle_r	ankle_angle_r	hip_flexion_l	hip_adduction_l	hip_rotation_l	knee_angle_l	ankle_angle_l	lumbar_extension
      0.00000000	     -2.71729338	      0.91576601	     -0.64307436	     -2.08117300	      0.83484642	     -0.21443516	     -7.37716576	      2.59699990	      0.00000000	    -25.21653279	     17.33012869	     25.26976987	      4.78692477	      0.00000000	    -10.63235184	      8.42281161	     -5.00000214
      0.01000000	     -2.78537210	      0.72625236	     -0.59963468	     -2.06977499	      0.83422474	     -0.21519409	     -7.23951418	      2.62782149	      0.00000000	    -26.75565015	     16.03158906	     26.19781688	      4.76761337	      0.00000000	    -13.49515700	      8.66951507	     -5.00000214
      0.02000000	     -2.84905814	      0.54683905	     -0.61589881	     -2.05841575	      0.83355260	     -0.21590536	     -7.04163439	      2.62609919	      0.00000000	    -28.38449157	     14.02399141	     27.08699657	      4.74105063	      0.00000000	    -16.31463534	      9.13550800	     -5.00000214
      0.03000000	     -2.85907982	      0.34378216	     -0.62603984	     -2.04690877	      0.83297084	     -0.21654517	     -6.92331210	      2.65519461	      0.00000000	    -29.90218401	     11.43314383	     27.83450803	      4.69287865	      0.00000000	    -19.02284739	      9.69938583	     -5.00000214
      0.04000000	     -2.89431433	      0.14199384	     -0.66963757	     -2.03562500	      0.83229487	     -0.21717873	     -6.60685422	      2.66724858	      0.00000000	    -31.62602838	     10.01403304	     28.58680843	      4.64052503	      0.00000000	    -21.70586549	      9.89745216	     -5.00000214
      0.05000000	     -2.95902903	     -0.01614506	     -0.87706988	     -2.02459694	      0.83170156	     -0.21783348	     -5.97190892	      2.55033307	      0.00000000	    -33.72290619	      7.42885294	     29.14497967	      4.59734369	      0.00000000	    -23.95661692	     10.43665900	     -5.00000214
      0.06000000	     -2.87795064	     -0.12840239	     -1.06076488	     -2.01296512	      0.83162172	     -0.21866435	     -5.59255403	      2.36486248	      0.00000000	    -35.54961655	      3.37808528	     29.18291810	      4.62520524	      0.00000000	    -25.64326214	     11.39452836	     -5.00000214
      0.07000000	     -2.86325205	     -0.24235483	     -1.30745266	     -2.00178858	      0.83146373	     -0.21946295	     -4.86570426	      2.14584510	      0.00000000	    -37.71275166	      0.33408821	     29.16944836	      4.62355849	      0.00000000	    -27.10073598	     12.19599949	     -5.00000214
      0.08000000	     -2.84095755	     -0.33476670	     -1.51293356	     -1.99071674	      0.83145397	     -0.22037565	     -4.04419592	      1.89866627	      0.00000000	    -39.93476781	     -2.52931702	     28.94469687	      4.64677199	      0.00000000	    -28.22020707	     13.07164273	     -5.00000214
      0.09000000	     -2.80945196	     -0.40370187	     -1.73421027	     -1.97975233	      0.83164616	     -0.22135870	     -3.12919431	      1.60053714	      0.00000000	    -42.21290434	     -5.05253201	     28.48563425	      4.67280070	      0.00000000	    -28.96011890	     13.98080659	     -5.00000214
      0.10000000	     -2.76270314	     -0.44236460	     -1.94772330	     -1.96889889	      0.83212823	     -0.22245574	     -2.16788980	      1.24657978	      0.00000000	    -44.46525487	     -7.12331063	     27.79983853	      4.71603866	      0.00000000	    -29.33342721	     14.88777565	     -5.00000214
      0.11000000	     -2.70285519	     -0.43641265	     -2.16412005	     -1.95812869	      0.83292492	     -0.22370686	     -1.16999284	      0.81916212	      0.00000000	    -46.68108192	     -7.73001361	     26.86363556	      4.78987174	      0.00000000	    -29.28063523	     15.26652434	     -5.00000214
      0.12000000	     -2.68651466	     -0.44761734	     -2.32713199	     -1.94769505	      0.83381954	     -0.22497156	     -0.03298448	      0.42906746	      0.00000000	    -48.89059165	     -9.04110192	     25.99098924	      4.83092967	      0.00000000	    -29.25877877	     16.39765409	     -5.00000214
      0.13000000	     -2.63856018	     -0.39765663	     -2.50955190	     -1.93731653	      0.83509516	     -0.22641706	      1.09361286	     -0.05824243	      0.00000000	    -50.98177109	     -9.05232354	     24.87831203	      4.93613176	      0.00000000	    -28.82929598	     16.83909956	     -5.00000214
      0.14000000	     -2.58341800	     -0.30432633	     -2.74518250	     -1.92703753	      0.83668268	     -0.22800200	      2.26504048	     -0.63220120	      0.00000000	    -52.94983661	     -8.77121944	     23.62397728	      5.08171215	      0.00000000	    -28.14406628	     17.18389035	     -5.00000214
      0.15000000	     -2.56874376	     -0.23508128	     -2.90670575	     -1.91700680	      0.83835163	     -0.22959665	      3.51624259	     -1.13450610	      0.00000000	    -54.80405329	     -7.36281965	     22.40694029	      5.21532709	      0.00000000	    -27.37825092	     17.89006357	     -5.00000214
      0.16000000	     -2.52212144	     -0.10960326	     -3.09118196	     -1.90699885	      0.84027649	     -0.23133850	      4.74986363	     -1.71440427	      0.00000000	    -56.46357249	     -6.15949267	     21.07330477	      5.42702467	      0.00000000	    -26.41484212	     18.12641762	     -5.00000214
      0.17000000	     -2.50777390	      0.06096634	     -3.38877554	     -1.89728502	      0.84226962	     -0.23320122	      6.54844081	     -2.40131063	      0.00000000	    -58.50786826	     -5.68686168	     19.75096690	      5.70059553	      0.00000000	    -25.34555463	     18.24385864	     -5.00000214
      0.18000000	     -2.50297803	      0.22491168	     -3.62495560	     -1.88768363	      0.84420841	     -0.23507103	      8.33887379	     -3.03095441	      0.00000000	    -60.33015603	     -4.13501323	     18.47479539	      5.99003405	      0.00000000	    -24.30120726	     18.41718936	     -5.00000214
      0.19000000	     -2.48278285	      0.38753575	     -3.83527763	     -1.87809970	      0.84618989	     -0.23695802	     10.10376996	     -3.62832990	      0.00000000	    -61.92446872	     -3.68722510	     17.18600203	      6.29707441	      0.00000000	    -23.23595661	     18.49060132	     -5.00000214
      0.20000000	     -2.44215936	      0.51635151	     -3.97183671	     -1.86847178	      0.84813144	     -0.23872125	     11.75621780	     -4.11007186	      0.00000000	    -63.23093865	     -2.17077649	     15.86929078	      6.57427918	      0.00000000	    -22.14921213	     18.54552280	     -5.00000214
      0.21000000	     -2.40410855	      0.64739525	     -4.07902743	     -1.85896082	      0.84996252	     -0.24051755	     13.41887833	     -4.56469487	      0.00000000	    -64.37360954	     -1.74952538	     14.61593076	      6.87095602	      0.00000000	    -21.17016104	     18.59221684	     -5.00000214
      0.22000000	     -2.33681292	      0.72122733	     -4.12244403	     -1.84933077	      0.85182328	     -0.24210210	     14.92175357	     -4.86788324	      0.00000000	    -65.19472367	     -0.77312513	     13.27125119	      7.09539125	      0.00000000	    -20.08477290	     18.59435447	     -5.00000214
      0.23000000	     -2.25694425	      0.77807281	     -4.13166917	     -1.83975902	      0.85353478	     -0.24363775	     16.37369946	     -5.11355230	      0.00000000	    -65.84058897	      0.32758484	     11.94968597	      7.30169181	      0.00000000	    -19.08069292	     18.53740749	     -5.00000214
      0.24000000	     -2.24392711	      0.80490918	     -4.08984293	     -1.83055413	      0.85500276	     -0.24504729	     17.90613179	     -5.25032246	      0.00000000	    -66.34997137	      0.56198490	     10.81506823	      7.46126386	      0.00000000	    -18.26125745	     18.55695087	     -5.00000214
      0.25000000	     -2.11043422	      0.81607968	     -4.06628669	     -1.82087186	      0.85661436	     -0.24640029	     19.14843585	     -5.36671795	      0.00000000	    -66.53821911	      1.38370898	      9.37487755	      7.60918420	      0.00000000	    -17.16474522	     18.41445789	     -5.00000214
      0.26000000	     -2.05596463	      0.81670810	     -4.00753718	     -1.81158489	      0.85792474	     -0.24764957	     20.49246400	     -5.40841180	      0.00000000	    -66.60845227	      1.58891491	      8.14927745	      7.72901185	      0.00000000	    -16.27257951	     18.37232659	     -5.00000214
      0.27000000	     -2.03573714	      0.80386671	     -3.92843704	     -1.80252156	      0.85902653	     -0.24884064	     21.85144690	     -5.40008242	      0.00000000	    -66.53456634	      1.66396227	      7.04347634	      7.82574738	      0.00000000	    -15.50919953	     18.34830331	     -5.00000214
      0.28000000	     -1.96013544	      0.75532821	     -3.85100367	     -1.79322088	      0.86018931	     -0.24981868	     22.99778111	     -5.28736515	      0.00000000	    -66.13094748	      1.70394537	      5.78541191	      7.86963636	      0.00000000	    -14.59742853	     18.22428369	     -5.00000214
      0.29000000	     -1.93695911	      0.70821353	     -3.76083109	     -1.78420159	      0.86108603	     -0.25075382	     24.19329375	     -5.14489947	      0.00000000	    -65.60476547	      1.65850762	      4.69402885	      7.90681046	      0.00000000	    -13.85373720	     18.10509927	     -5.00000214
      0.30000000	     -1.95964188	      0.67024034	     -3.65888931	     -1.77534751	      0.86173429	     -0.25163369	     25.40305589	     -4.97187235	      0.00000000	    -64.92320068	      1.60225903	      3.73744984	      7.94422226	      0.00000000	    -13.24732150	     18.05028395	     -5.00000214
      0.31000000	     -1.92425967	      0.61897902	     -3.54301360	     -1.76629514	      0.86241569	     -0.25247678	     26.39802235	     -4.76650366	      0.00000000	    -63.94203209	      1.49139309	      2.65813197	      7.96069626	      0.00000000	    -12.54013016	     17.90761904	     -5.00000214
